<svg xmlns="http://www.w3.org/2000/svg" xmlns:xlink="http://www.w3.org/1999/xlink" width="1026" height="189" viewBox="0 0 1026 189"><defs><path id="a" d="M790.34 64.33l32.83-32.83-.89 4.31c-.16-.41-.6-1.28-1.35-2.47-1.3-2.05-3-4.12-5.12-6.06-6.15-5.59-14.57-8.96-25.81-8.96-26.61 0-36 13.73-36 58s9.39 58 36 58c11.24 0 19.66-3.37 25.81-8.96 2.13-1.93 3.82-4 5.12-6.06.75-1.19 1.19-2.06 1.35-2.47l7.43 2.97c-.34.84-.99 2.16-2.02 3.78-1.67 2.63-3.82 5.25-6.5 7.69-7.6 6.91-17.93 11.04-31.19 11.04-31.81 0-44-17.81-44-66s12.19-66 44-66c13.26 0 23.59 4.13 31.19 11.04 2.68 2.44 4.83 5.06 6.5 7.69 1.03 1.62 1.69 2.94 2.02 3.78l.98 2.45-1.87 1.86-27.17 27.17h-11.31z"/></defs><use xlink:href="#a" overflow="visible" fill="#000"/><clipPath id="b"><use xlink:href="#a" overflow="visible"/></clipPath><g clip-path="url(#b)"><defs><path id="c" d="M-127-306.67h1280v800H-127z"/></defs><use xlink:href="#c" overflow="visible" fill="#000"/><clipPath id="d"><use xlink:href="#c" overflow="visible"/></clipPath><path clip-path="url(#d)" fill="#000" d="M741 5.33h94.69v142H741z"/></g><defs><path id="e" d="M184.03 72.33c.67-45.18 13.05-62 43.97-62 31.81 0 44 17.81 44 66s-12.19 66-44 66c-30.92 0-43.3-16.82-43.97-62h8c.57 41.1 10.18 54 35.97 54 26.61 0 36-13.73 36-58s-9.39-58-36-58c-25.79 0-35.41 12.9-35.97 54h-8z"/></defs><use xlink:href="#e" overflow="visible" fill-rule="evenodd" clip-rule="evenodd" fill="#000"/><clipPath id="f"><use xlink:href="#e" overflow="visible"/></clipPath><g clip-path="url(#f)"><defs><path id="g" d="M-127-306.67h1280v800H-127z"/></defs><use xlink:href="#g" overflow="visible" fill="#000"/><clipPath id="h"><use xlink:href="#g" overflow="visible"/></clipPath><path clip-path="url(#h)" fill="#000" d="M179.03 5.33H277v142h-97.97z"/></g><defs><path id="i" d="M83.71 32.85c-.34-.84-.99-2.16-2.02-3.78-1.67-2.63-3.82-5.25-6.5-7.69-7.6-6.92-17.93-11.05-31.19-11.05-31.81 0-44 17.81-44 66s12.19 66 44 66c13.26 0 23.59-4.13 31.19-11.04 2.68-2.44 4.83-5.06 6.5-7.69 1.03-1.62 1.68-2.94 2.02-3.78l-7.43-2.97c-.16.41-.6 1.28-1.35 2.47-1.3 2.05-3 4.12-5.12 6.06-6.15 5.59-14.57 8.96-25.81 8.96-26.61 0-36-13.73-36-58s9.39-58 36-58c11.24 0 19.66 3.37 25.81 8.96 2.13 1.93 3.82 4 5.12 6.06.75 1.19 1.19 2.06 1.35 2.47l7.43-2.98z"/></defs><use xlink:href="#i" overflow="visible" fill="#000"/><clipPath id="j"><use xlink:href="#i" overflow="visible"/></clipPath><g clip-path="url(#j)"><defs><path id="k" d="M-127-306.67h1280v800H-127z"/></defs><use xlink:href="#k" overflow="visible" fill="#000"/><clipPath id="l"><use xlink:href="#k" overflow="visible"/></clipPath><path clip-path="url(#l)" fill="#000" d="M-5 5.33h93.71v142H-5z"/></g><g><defs><path id="m" d="M396 136.33v4h12c40.72 0 64-19.05 64-64s-23.28-64-64-64h-12v124zm8 0v-120l-4 4h8c36.61 0 56 15.86 56 56s-19.39 56-56 56h-8l4 4z"/></defs><use xlink:href="#m" overflow="visible" fill="#000"/><clipPath id="n"><use xlink:href="#m" overflow="visible"/></clipPath><g clip-path="url(#n)"><defs><path id="o" d="M-127-306.67h1280v800H-127z"/></defs><use xlink:href="#o" overflow="visible" fill="#000"/><clipPath id="p"><use xlink:href="#o" overflow="visible"/></clipPath><path clip-path="url(#p)" fill="#000" d="M391 7.33h86v138h-86z"/></g></g><g><defs><path id="q" d="M950 136.33v4h12c40.72 0 64-19.05 64-64s-23.28-64-64-64h-12v124zm8 0v-120l-4 4h8c36.61 0 56 15.86 56 56s-19.39 56-56 56h-8l4 4z"/></defs><use xlink:href="#q" overflow="visible" fill="#000"/><clipPath id="r"><use xlink:href="#q" overflow="visible"/></clipPath><g clip-path="url(#r)"><defs><path id="s" d="M-127-306.67h1280v800H-127z"/></defs><use xlink:href="#s" overflow="visible" fill="#000"/><clipPath id="t"><use xlink:href="#s" overflow="visible"/></clipPath><path clip-path="url(#t)" fill="#000" d="M945 7.33h86v138h-86z"/></g></g><g><defs><path id="u" d="M366 12.33v64c0 46.17-6.85 58-32 58s-32-11.83-32-58V18.26v-5.93h-8v64c0 50.01 9.26 66 40 66s40-15.99 40-66v-64h-8z"/></defs><use xlink:href="#u" overflow="visible" fill="#000"/><clipPath id="v"><use xlink:href="#u" overflow="visible"/></clipPath><g clip-path="url(#v)"><defs><path id="w" d="M-127-306.67h1280v800H-127z"/></defs><use xlink:href="#w" overflow="visible" fill="#000"/><clipPath id="x"><use xlink:href="#w" overflow="visible"/></clipPath><path clip-path="url(#x)" fill="#000" d="M289 7.33h90v140h-90z"/></g></g><g><defs><path id="y" d="M108 12.33v128h64v-8h-60l4 4v-124z"/></defs><use xlink:href="#y" overflow="visible" fill="#000"/><clipPath id="z"><use xlink:href="#y" overflow="visible"/></clipPath><g clip-path="url(#z)"><defs><path id="A" d="M-127-306.67h1280v800H-127z"/></defs><use xlink:href="#A" overflow="visible" fill="#000"/><clipPath id="B"><use xlink:href="#A" overflow="visible"/></clipPath><path clip-path="url(#B)" fill="#000" d="M103 7.33h74v138h-74z"/></g></g><g><defs><path id="C" d="M490.34 12.33l43.44 126.71h-7.56l40.69-118.71H532v-8h46.11L534 141v47.33h-8V141L481.89 12.33z"/></defs><use xlink:href="#C" overflow="visible" fill="#000"/><clipPath id="D"><use xlink:href="#C" overflow="visible"/></clipPath><g clip-path="url(#D)"><defs><path id="E" d="M-127-306.67h1280v800H-127z"/></defs><use xlink:href="#E" overflow="visible" fill="#000"/><clipPath id="F"><use xlink:href="#E" overflow="visible"/></clipPath><path clip-path="url(#F)" fill="#000" d="M476.89 7.33h106.23v186H476.89z"/></g></g><g><defs><path id="G" d="M592 72.33h40v8h-40z"/></defs><use xlink:href="#G" overflow="visible" fill="#000"/><clipPath id="H"><use xlink:href="#G" overflow="visible"/></clipPath><g clip-path="url(#H)"><defs><path id="I" d="M-127-306.67h1280v800H-127z"/></defs><use xlink:href="#I" overflow="visible" fill="#000"/><clipPath id="J"><use xlink:href="#I" overflow="visible"/></clipPath><path clip-path="url(#J)" fill="#000" d="M587 67.33h50v18h-50z"/></g></g><g><defs><path id="K" d="M666 80.33v60h-8v-128h8v60h52v-60h8v128h-8v-60z"/></defs><use xlink:href="#K" overflow="visible" fill="#000"/><clipPath id="L"><use xlink:href="#K" overflow="visible"/></clipPath><g clip-path="url(#L)"><defs><path id="M" d="M-127-306.67h1280v800H-127z"/></defs><use xlink:href="#M" overflow="visible" fill="#000"/><clipPath id="N"><use xlink:href="#M" overflow="visible"/></clipPath><path clip-path="url(#N)" fill="#000" d="M653 7.33h78v138h-78z"/></g></g><g><defs><path id="O" d="M848.34 140.33l43.44-126.7h-7.56l40.69 118.7H890v8h46.11L891.78 11.04 888 0l-3.78 11.04-44.33 129.29z"/></defs><use xlink:href="#O" overflow="visible" fill="#000"/><clipPath id="P"><use xlink:href="#O" overflow="visible"/></clipPath><g clip-path="url(#P)"><defs><path id="Q" d="M-127-306.67h1280v800H-127z"/></defs><use xlink:href="#Q" overflow="visible" fill="#000"/><clipPath id="R"><use xlink:href="#Q" overflow="visible"/></clipPath><path clip-path="url(#R)" fill="#000" d="M834.89-5h106.23v150.33H834.89z"/></g></g></svg>
